<?xml version="1.0" encoding="iso-8859-1"?>
<!-- Generator: Adobe Illustrator 19.0.0, SVG Export Plug-In . SVG Version: 6.00 Build 0)  -->
<svg version="1.1" id="Layer_1" xmlns="http://www.w3.org/2000/svg" xmlns:xlink="http://www.w3.org/1999/xlink" x="0px" y="0px"
	 viewBox="0 0 511.999 511.999" style="enable-background:new 0 0 511.999 511.999;" xml:space="preserve">
<g>
	<g>
		<path d="M314.12,282.621c-14.857-20.8-36.041-32.73-58.12-32.73s-43.263,11.931-58.121,32.73
			c-13.742,19.238-21.31,44.503-21.31,71.141s7.568,51.903,21.31,71.141c14.857,20.801,36.042,32.73,58.121,32.73
			s43.263-11.931,58.12-32.73c13.742-19.238,21.311-44.503,21.311-71.141S327.863,301.859,314.12,282.621z M256,420.972
			c-23.184,0-42.771-30.778-42.771-67.211s19.586-67.211,42.771-67.211s42.771,30.778,42.771,67.211S279.184,420.972,256,420.972z"
			/>
	</g>
</g>
<g>
	<g>
		<path d="M220.855,132.282c-11.282-11.282-26.903-17.494-43.985-17.494c-21.334,0-43.096,9.526-59.705,26.136
			c-30.971,30.971-34.847,77.486-8.641,103.692c11.282,11.282,26.903,17.494,43.985,17.494c21.334,0,43.096-9.526,59.705-26.136
			C243.184,205.003,247.061,158.487,220.855,132.282z M186.291,210.05c-9.643,9.643-22.271,15.399-33.783,15.399
			c-5.157,0-12.477-1.172-18.063-6.757c-11.709-11.709-7.752-35.453,8.641-51.846c9.643-9.643,22.271-15.399,33.784-15.399
			c5.157,0,12.477,1.172,18.063,6.757C206.643,169.914,202.684,193.657,186.291,210.05z"/>
	</g>
</g>
<g>
	<g>
		<path d="M420.518,192.534c-2.09-18.81-11.211-37.139-25.684-51.611c-16.61-16.611-38.371-26.136-59.705-26.136
			c-17.083,0-32.704,6.213-43.985,17.494c-26.206,26.205-22.329,72.721,8.641,103.69c16.61,16.611,38.371,26.136,59.705,26.136
			c17.083,0,32.704-6.213,43.985-17.494C416.533,231.556,422.745,212.575,420.518,192.534z M377.554,218.692
			c-5.586,5.585-12.906,6.757-18.063,6.757c-11.511,0-24.141-5.756-33.784-15.399c-16.393-16.393-20.35-40.137-8.641-51.846
			c5.586-5.585,12.906-6.757,18.063-6.757c11.511,0,24.141,5.756,33.784,15.399c8.483,8.483,14.013,19.324,15.17,29.737
			C384.664,201.82,384.59,211.655,377.554,218.692z"/>
	</g>
</g>
<g>
	<g>
		<path d="M511.528,405.263l-4.859-38.867l-0.077-0.546c-1.617-10.385-6.23-20.906-12.911-30.53
			c8.513-25.5,12.831-52.131,12.831-79.32C506.513,117.867,394.134,5.487,256,5.487S5.487,117.867,5.487,256
			c0,27.19,4.317,53.821,12.831,79.321c-6.681,9.622-11.294,20.144-12.911,30.528l-4.936,39.414
			c-4.44,29.935,22.913,62.517,63.781,75.899c7.603,2.488,15.119,3.75,22.338,3.75c14.969,0,28.417-5.522,38.056-15.553
			c39.419,24.362,84.442,37.152,131.353,37.152c46.911,0,91.935-12.79,131.353-37.152c9.638,10.032,23.088,15.553,38.056,15.553
			c7.218,0,14.735-1.262,22.34-3.752C488.615,467.78,515.968,435.198,511.528,405.263z M98.462,443.719
			c-2.734,3.009-6.728,4.535-11.872,4.535c-3.339,0-7.018-0.65-10.931-1.931c-25.442-8.33-40.273-27.021-38.918-35.728l4.925-39.333
			c2.091-12.479,17.14-30.808,34.372-36.871c1.21-0.425,2.372-0.64,3.455-0.64c7.513,0,16.764,11.918,18.642,31.186l4.878,58.536
			l0.021,0.227C103.872,432.442,102.248,439.552,98.462,443.719z M377.362,361.542l-4.899,58.778
			c-0.49,5.192-0.466,10.225,0.023,15.052c-34.662,22.59-74.692,34.482-116.485,34.482c-41.795,0-81.825-11.891-116.487-34.482
			c0.489-4.826,0.514-9.859,0.024-15.052l-4.88-58.549l-0.021-0.229c-3.64-37.948-26.317-64.452-55.145-64.452
			c-5.236,0-10.492,0.914-15.621,2.719c-5.354,1.883-10.573,4.388-15.554,7.385c-4.093-16.652-6.171-33.784-6.171-51.194
			c0-117.918,95.934-213.853,213.853-213.853S469.852,138.082,469.852,256c0,17.409-2.079,34.542-6.171,51.194
			c-4.981-2.996-10.199-5.5-15.553-7.383c-5.13-1.806-10.386-2.72-15.622-2.72C403.679,297.091,381.002,323.595,377.362,361.542z
			 M436.341,446.322c-3.915,1.282-7.594,1.932-10.933,1.932c-5.143,0-9.138-1.526-11.872-4.535
			c-3.787-4.167-5.41-11.278-4.57-20.019l4.898-58.764c1.878-19.268,11.129-31.186,18.642-31.186c1.081,0,2.244,0.216,3.456,0.642
			c17.23,6.061,32.28,24.39,34.37,36.869l4.848,38.786l0.077,0.546C476.613,419.302,461.782,437.993,436.341,446.322z"/>
	</g>
</g>
<g>
</g>
<g>
</g>
<g>
</g>
<g>
</g>
<g>
</g>
<g>
</g>
<g>
</g>
<g>
</g>
<g>
</g>
<g>
</g>
<g>
</g>
<g>
</g>
<g>
</g>
<g>
</g>
<g>
</g>
</svg>
