<?xml version="1.0" encoding="iso-8859-1"?>
<!-- Generator: Adobe Illustrator 18.0.0, SVG Export Plug-In . SVG Version: 6.00 Build 0)  -->
<!DOCTYPE svg PUBLIC "-//W3C//DTD SVG 1.1//EN" "http://www.w3.org/Graphics/SVG/1.1/DTD/svg11.dtd">
<svg version="1.1" id="Capa_1" xmlns="http://www.w3.org/2000/svg" xmlns:xlink="http://www.w3.org/1999/xlink" x="0px" y="0px"
	 viewBox="0 0 59 59" style="enable-background:new 0 0 59 59;" xml:space="preserve">
<g>
	<path d="M20.95,38.676c2.452,0,4.61-1.27,5.861-3.184c1.439,3.058,4.542,5.184,8.139,5.184c4.963,0,9-4.037,9-9s-4.037-9-9-9
		c-3.598,0-6.7,2.126-8.139,5.184c-1.251-1.914-3.409-3.184-5.861-3.184c-3.859,0-7,3.141-7,7S17.091,38.676,20.95,38.676z
		 M34.95,24.676c3.859,0,7,3.141,7,7s-3.141,7-7,7s-7-3.141-7-7S31.091,24.676,34.95,24.676z M20.95,26.676c2.757,0,5,2.243,5,5
		s-2.243,5-5,5s-5-2.243-5-5S18.193,26.676,20.95,26.676z"/>
	<circle cx="20.95" cy="31.676" r="2"/>
	<circle cx="34.95" cy="31.676" r="3"/>
	<path d="M43.293,45.706c-1.18,1.178-3.406,1.178-4.586,0c-1.939-1.939-5.475-1.939-7.414,0c-0.56,0.559-1.395,0.88-2.293,0.88
		s-1.733-0.321-2.293-0.88c-1.939-1.939-5.475-1.939-7.414,0c-1.223,1.223-3.452,1.307-4.586,0.173
		c-0.391-0.391-1.023-0.391-1.414,0s-0.391,1.023,0,1.414c0.916,0.916,2.216,1.37,3.538,1.37c1.412,0,2.851-0.518,3.876-1.543
		c1.18-1.178,3.406-1.178,4.586,0c0.932,0.932,2.282,1.466,3.707,1.466s2.775-0.534,3.707-1.466c1.18-1.178,3.406-1.178,4.586,0
		c0.932,0.932,2.282,1.466,3.707,1.466s2.775-0.534,3.707-1.466c0.391-0.391,0.391-1.023,0-1.414S43.684,45.315,43.293,45.706z"/>
	<path d="M29.5,0C14.888,0,3,11.888,3,26.5v10.979c0,0,0,0.002,0,0.004s0,0.004,0,0.006c0,0.004,0,0.008,0,0.012V51
		c0,2.757,2.243,5,5,5h6.55c0.046,0.022,0.096,0.04,0.142,0.061c3.51,1.654,7.728,2.643,12.543,2.878
		c0.107,0.005,0.214,0.011,0.321,0.016C28.195,58.982,28.84,59,29.5,59s1.305-0.018,1.945-0.045c0.107-0.005,0.214-0.01,0.321-0.016
		c4.814-0.235,9.033-1.224,12.543-2.878c0.046-0.022,0.096-0.04,0.142-0.061H51c2.757,0,5-2.243,5-5V26.5C56,11.888,44.112,0,29.5,0
		z M43.992,54l-0.207,0.101c-2.828,1.374-6.204,2.271-9.916,2.666c-0.271,0.027-0.542,0.056-0.819,0.078
		c-0.392,0.033-0.787,0.062-1.186,0.084C31.09,56.969,30.309,57,29.5,57s-1.59-0.031-2.364-0.072
		c-0.399-0.022-0.794-0.051-1.186-0.084c-0.276-0.022-0.547-0.05-0.818-0.078c-3.712-0.395-7.089-1.292-9.916-2.666L15.008,54
		h-0.089C8.548,50.783,5,45.095,5,37.5c0-0.004,0-0.007,0-0.011c0-0.002,0-0.004,0-0.006c0-0.001,0-0.002,0-0.004
		C5.012,24.628,15.796,13.647,29,13l0.951-0.001C43.212,13.647,54,24.639,54,37.5c0,7.595-3.548,13.283-9.919,16.5H43.992z M8,54
		c-1.654,0-3-1.346-3-3v-4.226c1.384,2.876,3.459,5.308,6.148,7.226H8z M54,51c0,1.654-1.346,3-3,3h-3.148
		c2.689-1.917,4.764-4.349,6.148-7.226V51z M30,11l-1.049,0.001C18.165,11.529,8.911,18.42,5,27.736V26.5C5,12.99,15.99,2,29.5,2
		S54,12.99,54,26.5v1.198C50.079,18.398,40.811,11.528,30,11z"/>
</g>
<g>
</g>
<g>
</g>
<g>
</g>
<g>
</g>
<g>
</g>
<g>
</g>
<g>
</g>
<g>
</g>
<g>
</g>
<g>
</g>
<g>
</g>
<g>
</g>
<g>
</g>
<g>
</g>
<g>
</g>
</svg>
