<?xml version="1.0" encoding="iso-8859-1"?>
<!-- Generator: Adobe Illustrator 19.0.0, SVG Export Plug-In . SVG Version: 6.00 Build 0)  -->
<svg version="1.1" id="Layer_1" xmlns="http://www.w3.org/2000/svg" xmlns:xlink="http://www.w3.org/1999/xlink" x="0px" y="0px"
	 viewBox="0 0 511.999 511.999" style="enable-background:new 0 0 511.999 511.999;" xml:space="preserve">
<g>
	<g>
		<path d="M424.099,238.647c-26.447,0-47.962,21.516-47.962,47.963c0,26.446,21.515,47.962,47.962,47.962
			c26.447,0,47.963-21.516,47.963-47.962C472.062,260.163,450.546,238.647,424.099,238.647z M424.099,318.526
			c-17.597,0-31.915-14.317-31.915-31.915c0-17.598,14.317-31.916,31.915-31.916c17.598,0,31.916,14.317,31.916,31.916
			C456.015,304.208,441.697,318.526,424.099,318.526z"/>
	</g>
</g>
<g>
	<g>
		<path d="M484.534,345.151h-96.048l-27.433-41.692c-0.074-0.112-0.152-0.223-0.231-0.332c-6.565-8.962-17.497-12.875-27.752-10.964
			v-40.161c0-15.605-5.379-30.903-15.149-43.075l-32.264-40.197c-10.721-13.357-26.691-21.018-43.819-21.018H231.32
			c10.097-12.424,16.164-28.247,16.164-45.467c0-37.952-29.435-69.137-66.671-71.978C177.923,15.01,164.12,3.564,147.855,4.402
			c-15.666,0.807-28.622,13.227-30.04,28.851c-0.643,7.081,1.041,13.963,4.676,19.785c-12.041,12.907-19.431,30.207-19.431,49.209
			c0,17.22,6.067,33.043,16.164,45.467h-10.518c-17.128,0-33.098,7.661-43.819,21.018l-32.263,40.197
			c-9.77,12.17-15.149,27.467-15.149,43.075v30.914C6.458,289.947,0,302.062,0,316.21v181.532c0,4.394,3.386,8.225,7.778,8.356
			c4.544,0.136,8.27-3.507,8.27-8.02V316.21c0-4.633,1.005-8.747,2.904-12.21c3.868,11.736,14.929,20.233,27.944,20.233
			c11.6,0,21.651-6.751,26.438-16.528c1.008,2.67,1.55,5.528,1.554,8.462c0.005,3.35,1.967,6.446,5.127,7.558
			c5.65,1.988,10.921-2.149,10.921-7.517c0-12.016-5.32-23.298-14.595-30.954c-0.009-0.006-0.017-0.012-0.025-0.018v-12.365
			c0-11.672,3.945-23.174,11.104-32.381l13.264-17.022v22.962c0,4.431,3.592,8.024,8.024,8.024s8.024-3.592,8.024-8.024v-82.67
			h20.77c10.997,6.777,23.934,10.698,37.773,10.698s26.776-3.921,37.773-10.698h20.769v131.052c0,0.895,0.151,1.786,0.444,2.632
			l26.017,74.93H90.268l26.017-74.93c0.293-0.846,0.444-1.736,0.444-2.632v-9.299c0-4.431-3.592-8.024-8.024-8.024
			s-8.024,3.592-8.024,8.024v7.946l-26.589,76.575c-1.842,5.307-0.31,11.359,4.165,15.134c2.589,2.183,5.941,3.253,9.327,3.253
			h26.173v87.634c0,16.008,12.528,29.557,28.528,30.033c16.627,0.494,30.312-12.888,30.312-29.407v-88.26h5.349v87.634
			c0,16.008,12.528,29.557,28.528,30.033c16.627,0.494,30.312-12.888,30.312-29.407v-88.26h26.177c3.385,0,6.734-1.07,9.321-3.251
			c4.475-3.773,6.007-9.827,4.165-15.136l-26.589-76.575V223.47l13.259,17.015c7.163,9.214,11.11,20.717,11.11,32.388v21.347
			c0,14.225,9.888,26.798,23.858,29.481c4.334,0.832,8.52,0.651,12.416-0.282c0.594,4.449,2.266,8.816,5.081,12.694l60.552,87.91
			v55.039c0,15.379,12.155,28.326,27.532,28.576c7.997,0.129,15.248-3.116,20.43-8.398c5.183,5.282,12.434,8.527,20.431,8.398
			c15.376-0.249,27.532-13.197,27.532-28.576v-27.356c4.028,1.909,8.579,2.889,13.376,2.648
			c14.998-0.753,26.562-13.578,26.562-28.594v-53.142C512,357.448,499.703,345.151,484.534,345.151z M100.681,197.361
			l-25.927,33.273c-9.342,12.016-14.487,27.016-14.487,42.237v21.941c0,7.374-5.998,13.373-13.373,13.373
			c-7.374,0-13.373-5.998-13.373-13.373v-42.81c0-11.968,4.125-23.697,11.615-33.03L77.4,178.774
			c5.951-7.415,14.172-12.357,23.281-14.2V197.361z M149.529,20.406c6.833,0,12.649,4.367,14.849,10.451
			c-10.759,1.635-20.746,5.652-29.404,11.495c-0.812-1.922-1.247-4.002-1.247-6.145C133.727,27.495,140.815,20.406,149.529,20.406z
			 M175.272,46.082c24.406,0,45.217,15.652,52.945,37.443h-26.589l-5.515-11.03c-1.934-3.866-5.82-6.268-10.142-6.268
			c-0.001,0-0.002,0-0.002,0c-4.323,0-8.21,2.404-10.141,6.268l-5.515,11.029h-47.985C130.055,61.734,150.866,46.082,175.272,46.082
			z M175.272,158.412c-30.969,0-56.165-25.195-56.165-56.165c0-0.896,0.026-1.788,0.067-2.674h56.098
			c3.039,0,5.818-1.717,7.176-4.435l3.522-7.043l3.522,7.043c1.36,2.718,4.137,4.435,7.176,4.435h34.702
			c0.042,0.887,0.067,1.778,0.067,2.674C231.437,133.216,206.241,158.412,175.272,158.412z M156.55,476.682
			c0,7.374-5.998,13.373-13.373,13.373c-7.374,0-13.373-5.998-13.373-13.373v-88.26h26.745V476.682z M220.739,476.682
			c0,7.374-5.998,13.373-13.373,13.373s-13.373-5.998-13.373-13.373v-88.26h26.745V476.682z M317.022,294.813
			c0,7.374-5.998,13.373-13.373,13.373c-7.374,0-13.373-5.998-13.373-13.373v-21.941c0-15.22-5.146-30.221-14.494-42.245
			l-25.922-33.267v-32.784c9.109,1.842,17.329,6.785,23.281,14.2l32.263,40.197c7.491,9.334,11.616,21.064,11.616,33.03V294.813z
			 M376.137,395.733l-47.398-68.811c-0.044-0.064-0.09-0.127-0.135-0.19c-3.893-5.314-2.738-12.804,2.577-16.695
			c5.265-3.859,12.669-2.757,16.591,2.436l28.365,43.107V395.733z M416.075,479.647c0,6.587-5.359,11.946-11.946,11.946
			c-6.587,0-11.946-5.359-11.946-11.946v-25.258h23.891V479.647z M392.184,438.342v-77.143h63.83v77.143H392.184z M456.015,479.647
			L456.015,479.647c0,6.587-5.359,11.946-11.946,11.946h-0.001c-6.587,0-11.945-5.359-11.945-11.946v-25.258h23.892V479.647z
			 M484.007,438.342c-6.587,0-11.946-5.359-11.946-11.947v-65.197h12.472c6.297,0,11.419,5.122,11.419,11.419v53.777h0
			C495.953,432.982,490.594,438.342,484.007,438.342z"/>
	</g>
</g>
<g>
</g>
<g>
</g>
<g>
</g>
<g>
</g>
<g>
</g>
<g>
</g>
<g>
</g>
<g>
</g>
<g>
</g>
<g>
</g>
<g>
</g>
<g>
</g>
<g>
</g>
<g>
</g>
<g>
</g>
</svg>
